<svg width="115" height="44" viewBox="0 0 115 44" fill="none" xmlns="http://www.w3.org/2000/svg">
<path d="M2 41.5V2H28V41.5H2Z" stroke="#4C2FC9" stroke-width="3"/>
<path d="M20.5 24C21.8807 24 23 22.8807 23 21.5C23 20.1193 21.8807 19 20.5 19C19.1193 19 18 20.1193 18 21.5C18 22.8807 19.1193 24 20.5 24Z" fill="#4C2FC9" stroke="#4C2FC9"/>
<path d="M48.836 43L45.0692 36.163H44.0114V43H39.5996V24.8884H47.0042C48.4318 24.8884 49.6444 25.1378 50.642 25.6366C51.6568 26.1354 52.4136 26.8234 52.9124 27.7006C53.4112 28.5606 53.6606 29.5238 53.6606 30.5902C53.6606 31.7942 53.3166 32.8692 52.6286 33.8152C51.9578 34.7612 50.9602 35.432 49.6358 35.8276L53.8154 43H48.836ZM44.0114 33.0412H46.7462C47.5546 33.0412 48.1566 32.8434 48.5522 32.4478C48.965 32.0522 49.1714 31.4932 49.1714 30.7708C49.1714 30.0828 48.965 29.541 48.5522 29.1454C48.1566 28.7498 47.5546 28.552 46.7462 28.552H44.0114V33.0412ZM62.9833 43.2064C61.5729 43.2064 60.3001 42.9054 59.1649 42.3034C58.0469 41.7014 57.1611 40.8414 56.5075 39.7234C55.8711 38.6054 55.5529 37.2982 55.5529 35.8018C55.5529 34.3226 55.8797 33.024 56.5333 31.906C57.1869 30.7708 58.0813 29.9022 59.2165 29.3002C60.3517 28.6982 61.6245 28.3972 63.0349 28.3972C64.4453 28.3972 65.7181 28.6982 66.8533 29.3002C67.9885 29.9022 68.8829 30.7708 69.5365 31.906C70.1901 33.024 70.5169 34.3226 70.5169 35.8018C70.5169 37.281 70.1815 38.5882 69.5107 39.7234C68.8571 40.8414 67.9541 41.7014 66.8017 42.3034C65.6665 42.9054 64.3937 43.2064 62.9833 43.2064ZM62.9833 39.388C63.8261 39.388 64.5399 39.0784 65.1247 38.4592C65.7267 37.84 66.0277 36.9542 66.0277 35.8018C66.0277 34.6494 65.7353 33.7636 65.1505 33.1444C64.5829 32.5252 63.8777 32.2156 63.0349 32.2156C62.1749 32.2156 61.4611 32.5252 60.8935 33.1444C60.3259 33.7464 60.0421 34.6322 60.0421 35.8018C60.0421 36.9542 60.3173 37.84 60.8677 38.4592C61.4353 39.0784 62.1405 39.388 62.9833 39.388ZM79.4106 43.2064C78.0002 43.2064 76.7274 42.9054 75.5922 42.3034C74.4742 41.7014 73.5884 40.8414 72.9348 39.7234C72.2984 38.6054 71.9802 37.2982 71.9802 35.8018C71.9802 34.3226 72.307 33.024 72.9606 31.906C73.6142 30.7708 74.5086 29.9022 75.6438 29.3002C76.779 28.6982 78.0518 28.3972 79.4622 28.3972C80.8726 28.3972 82.1454 28.6982 83.2806 29.3002C84.4158 29.9022 85.3102 30.7708 85.9638 31.906C86.6174 33.024 86.9442 34.3226 86.9442 35.8018C86.9442 37.281 86.6088 38.5882 85.938 39.7234C85.2844 40.8414 84.3814 41.7014 83.229 42.3034C82.0938 42.9054 80.821 43.2064 79.4106 43.2064ZM79.4106 39.388C80.2534 39.388 80.9672 39.0784 81.552 38.4592C82.154 37.84 82.455 36.9542 82.455 35.8018C82.455 34.6494 82.1626 33.7636 81.5778 33.1444C81.0102 32.5252 80.305 32.2156 79.4622 32.2156C78.6022 32.2156 77.8884 32.5252 77.3208 33.1444C76.7532 33.7464 76.4694 34.6322 76.4694 35.8018C76.4694 36.9542 76.7446 37.84 77.295 38.4592C77.8626 39.0784 78.5678 39.388 79.4106 39.388ZM107.654 28.4488C109.443 28.4488 110.862 28.9906 111.911 30.0742C112.978 31.1578 113.511 32.6628 113.511 34.5892V43H109.125V35.1826C109.125 34.2538 108.876 33.54 108.377 33.0412C107.895 32.5252 107.224 32.2672 106.364 32.2672C105.504 32.2672 104.825 32.5252 104.326 33.0412C103.845 33.54 103.604 34.2538 103.604 35.1826V43H99.2178V35.1826C99.2178 34.2538 98.9684 33.54 98.4696 33.0412C97.988 32.5252 97.3172 32.2672 96.4572 32.2672C95.5972 32.2672 94.9178 32.5252 94.419 33.0412C93.9374 33.54 93.6966 34.2538 93.6966 35.1826V43H89.2848V28.6036H93.6966V30.4096C94.1438 29.8076 94.7286 29.3346 95.451 28.9906C96.1734 28.6294 96.9904 28.4488 97.902 28.4488C98.9856 28.4488 99.9488 28.681 100.792 29.1454C101.652 29.6098 102.322 30.272 102.804 31.132C103.303 30.3408 103.982 29.6958 104.842 29.197C105.702 28.6982 106.64 28.4488 107.654 28.4488Z" fill="#4C2FC9"/>
</svg>
